
<svg width="65" height="41" viewBox="0 0 65 41" fill="none" xmlns="http://www.w3.org/2000/svg">
<path d="M41.2075 11.2892H36.6816C36.1972 11.2892 35.803 11.6567 35.803 12.1083V14.7981C35.803 15.2497 36.1972 15.6171 36.6816 15.6171H37.4438V29.1332C37.4438 29.5848 37.838 29.9522 38.3225 29.9522H41.2075C41.692 29.9522 42.0862 29.5848 42.0862 29.1332V12.1079C42.0862 11.6567 41.692 11.2892 41.2075 11.2892Z" fill="#0E1122"/>
<path d="M0 20.9566C0 26.0752 4.46721 30.2395 9.95804 30.2395C15.4489 30.2395 19.9161 26.0752 19.9161 20.9566C19.9161 17.7141 18.0915 14.7036 15.1324 13.0254C16.896 11.6259 17.9007 9.59467 17.9007 7.40419C17.9011 3.3216 14.3379 0 9.95804 0C5.57819 0 2.01538 3.3216 2.01538 7.40419C2.01538 9.59467 3.02003 11.6256 4.78371 13.0254C1.82455 14.7036 0 17.7144 0 20.9566ZM9.95804 10.7742C7.96486 10.7742 6.34331 9.26258 6.34331 7.40452C6.34331 5.54646 7.96486 4.03485 9.95804 4.03485C11.9512 4.03485 13.5728 5.54646 13.5728 7.40452C13.5728 9.26258 11.9512 10.7742 9.95804 10.7742ZM4.32793 20.9566C4.32793 18.0626 6.85351 15.7082 9.95804 15.7082C13.0626 15.7082 15.5881 18.0626 15.5881 20.9566C15.5881 23.8507 13.0626 26.2047 9.95804 26.2047C6.85387 26.205 4.32793 23.8507 4.32793 20.9566Z" fill="#0E1122"/>
<path d="M64.1211 11.5848H61.5503C61.0659 11.5848 60.6717 11.9523 60.6717 12.4039V13.4853C59.0147 12.4316 57.0326 11.8552 55.0416 11.8552C49.5507 11.8552 45.0835 16.0195 45.0835 21.1381C45.0835 26.2567 49.5507 30.4211 55.0416 30.4211C57.0323 30.4211 59.0144 29.8447 60.6717 28.791V31.6199C60.6717 33.0504 60.0398 34.4499 58.9381 35.4595C57.8529 36.4538 56.4336 36.9902 54.9435 36.9645C51.893 36.9157 49.4115 34.5617 49.4115 31.7171V31.6012C49.4115 31.1497 49.0173 30.7822 48.5328 30.7822H45.9621C45.4777 30.7822 45.0835 31.1497 45.0835 31.6012C45.0835 36.7345 49.5067 40.9503 54.9435 40.9997C54.9768 41 55.0094 41 55.0427 41C57.6807 41 60.1644 40.0468 62.0455 38.3102C63.9506 36.5513 65 34.2099 65 31.7171V12.4039C64.9997 11.9523 64.6058 11.5848 64.1211 11.5848ZM60.6717 21.1381C60.6717 24.0322 58.1461 26.3862 55.0416 26.3862C51.9371 26.3862 49.4115 24.0318 49.4115 21.1381C49.4115 18.2444 51.9371 15.8897 55.0416 15.8897C58.1461 15.8897 60.6717 18.2444 60.6717 21.1381Z" fill="#0E1122"/>
<path d="M40.411 9.36529C41.9685 8.7639 42.708 7.09943 42.0629 5.64758C41.4178 4.19573 39.6323 3.5063 38.0748 4.10769C36.5174 4.70907 35.7778 6.37355 36.4229 7.82539C37.0681 9.27724 38.8536 9.96667 40.411 9.36529Z" fill="#0E1122"/>
<path d="M29.1464 7.94229C29.1468 5.49515 30.6552 4.99317 32.6698 4.99317C33.0107 4.99317 33.2867 4.73584 33.2867 4.4181V1.24636C33.2867 0.928618 33.0107 0.671288 32.6698 0.671288C27.3587 0.671288 24.5041 3.18552 24.5041 7.94229L24.5037 11.5219H22.647C22.1923 11.5219 21.8235 11.8657 21.8235 12.2895V15.0821C21.8235 15.506 22.1923 15.8498 22.647 15.8498H24.5037V29.2774C24.5037 29.6395 24.8185 29.9329 25.2069 29.9329H28.4425C28.831 29.9329 29.1457 29.6395 29.1457 29.2774V15.8498H32.4876C32.9423 15.8498 33.3111 15.506 33.3111 15.0821V12.2895C33.3111 11.8657 32.9423 11.5219 32.4876 11.5219H29.1457L29.1464 7.94229Z" fill="#0E1122"/>
</svg>
