<svg xmlns="http://www.w3.org/2000/svg" width="100%" viewBox="0 0 110 24" fill="none" class="nav_logo"><path d="M98.0783 23.9971C95.7588 23.9971 93.6802 23.4699 91.8427 22.4155C90.0352 21.3612 88.6043 19.9153 87.55 18.0777C86.5258 16.2401 86.0137 14.1465 86.0137 11.7968C86.0137 9.59778 86.5258 7.56441 87.55 5.69672C88.5742 3.82903 89.9044 2.69058 91.6818 1.57599C93.4591 0.43128 95.563 0 97.8524 0C100.323 0 102.472 0.386093 104.159 1.44043C105.846 2.49477 107.055 3.55791 107.929 5.33523C108.802 7.08242 109.239 9.02542 109.239 11.1642C109.239 11.6462 109.224 12.0679 109.194 12.4294C109.164 12.7608 109.134 13.0018 109.104 13.1524H91.8427C92.1138 14.9599 92.8368 16.2045 94.0116 17.1684C95.1864 18.1324 96.5721 18.6144 98.1687 18.6144C99.5845 18.6144 100.774 18.3132 101.738 17.7107C102.702 17.0781 103.455 16.4359 103.998 15.5021L109.104 16.7306C108.43 19.1191 106.615 21.0464 104.54 22.3704C102.793 23.4548 100.639 23.9971 98.0783 23.9971ZM97.8976 4.55275C96.542 4.55275 95.2665 4.88889 94.2122 5.70224C93.1578 6.51558 92.4903 7.50416 92.0686 8.95011H103.546C103.486 8.25726 103.23 7.56441 102.778 6.87155C102.326 6.14858 101.724 5.62087 100.88 5.20519C100.032 4.78767 99.0724 4.55275 97.8976 4.55275Z" fill="currentColor"></path><path d="M82.9609 15.109L59.514 23.7005L59.514 17.606L77.7255 12.4121L77.7255 11.6009L59.514 6.26352L59.514 0.0561619L82.9609 8.60537L82.9609 15.109Z" fill="currentColor"></path><path d="M0 23.6011L2.76097 0.126007L10.0377 0.126007L14.7832 17.3283H15.6262L19.2292 0.126007H27.5546L30.3505 23.6011H24.1524L23.396 6.39591H22.5531L18.998 23.6011H11.4114L7.47958 6.39591H6.64686L6.15152 23.6011L0 23.6011Z" fill="currentColor"></path><path d="M43.0923 0.0484924C44.1588 0.0484924 45.1785 0.205555 46.1509 0.519196C47.1233 0.832896 47.9869 1.27193 48.7397 1.83658C49.5232 2.36941 50.1026 2.99674 50.479 3.71744L51.2534 3.71646L50.4419 0.989899L50.4331 0.519196H55.6567V23.529H50.4331V23.1129L51.2534 20.3268L50.48 20.3288V20.3297C50.0722 21.0196 49.4759 21.6471 48.6919 22.2116C47.9391 22.7761 47.0763 23.2153 46.104 23.529C45.1316 23.8426 44.1274 23.9997 43.0923 23.9997C41.0221 23.9996 39.1396 23.4665 37.4458 22.4001C35.7834 21.3336 34.4661 19.8901 33.4937 18.071C32.5212 16.2516 32.0347 14.2277 32.0347 12.0006C32.0347 10.3383 32.3169 8.78525 32.8813 7.34244C33.446 5.86814 34.2311 4.59746 35.2349 3.53091C36.2386 2.43311 37.399 1.58591 38.7163 0.989899C40.0651 0.362551 41.5239 0.048548 43.0923 0.0484924ZM43.8306 5.40884C40.1888 5.4089 37.2368 8.36139 37.2368 12.0036C37.2369 15.6457 40.1889 18.5982 43.8306 18.5983C47.4723 18.5983 50.4242 15.6457 50.4243 12.0036C50.4243 8.36136 47.4724 5.40884 43.8306 5.40884Z" fill="currentColor"></path></svg>